<?xml version="1.0" encoding="iso-8859-1"?>
<!-- Generator: Adobe Illustrator 19.0.0, SVG Export Plug-In . SVG Version: 6.00 Build 0)  -->
<svg version="1.1" id="Capa_1" xmlns="http://www.w3.org/2000/svg" xmlns:xlink="http://www.w3.org/1999/xlink" x="0px" y="0px"
	 viewBox="0 0 478.923 478.923" style="enable-background:new 0 0 478.923 478.923;" xml:space="preserve">
<path style="fill:#EFE5D3;" d="M158.379,432.149c-4.224,4.232-6.6,9.976-6.6,15.96v0.04c0,12.496,10.12,22.616,22.608,22.616
	c6.008,0,11.776-2.392,16.016-6.648l153.432-153.96l-31.968-31.968L158.379,432.149z"/>
<g>
	<path style="fill:#F7BA21;" d="M263.779,14.765c-8.84-8.84-23.16-8.84-32,0l-48,48l32,32l48-48
		C272.619,37.925,272.619,23.605,263.779,14.765z"/>
	<path style="fill:#F7BA21;" d="M171.091,50.077c-6.248-6.248-16.376-6.248-22.624,0l-97.376,97.376
		c-6.248,6.248-6.248,16.376,0,22.624l57.376,57.376c6.248,6.248,16.376,6.248,22.624,0l97.376-97.376
		c6.248-6.248,6.248-16.376,0-22.624l-12.688-12.688l-32-32L171.091,50.077z"/>
	<path style="fill:#F7BA21;" d="M15.779,262.765c8.84,8.84,23.16,8.84,32,0l48-48l-32-32l-48,48
		C6.939,239.605,6.939,253.925,15.779,262.765z"/>
</g>
<g>
	<path style="fill:#68C9BA;" d="M348.723,144.653c7.04-6.288,11.056-15.28,11.056-24.72c0-18.32-14.848-33.168-33.168-33.168
		c-9.44,0-18.424,4.016-24.72,11.056L175.779,238.765l32,32L348.723,144.653z"/>
	<path style="fill:#68C9BA;" d="M415.779,126.765l-128,127.336l24.088,24.088l31.968,31.968l23.944,23.944l85.536-85.064
		c23.44-23.328,23.48-61.256,0.096-84.64L415.779,126.765z"/>
</g>
<path style="fill:#EFE5D3;" d="M170.683,320.221c-0.256-3.024-0.712-5.96-1.392-8.8
	C169.979,314.261,170.435,317.197,170.683,320.221l37.096-49.456l-32-32l-49.456,37.096c3.024,0.256,5.968,0.712,8.8,1.392
	c-2.832-0.68-5.776-1.136-8.8-1.392c-25.408-2.12-56.816,10.672-82.208,36.056c-35,35-46.128,81.456-27.12,107.816l0,0
	c1.352,1.872,2.832,3.664,4.496,5.328c24.992,24.992,75.648,14.864,113.136-22.624C160.019,377.037,172.811,345.629,170.683,320.221
	z M142.515,279.669c-2.368-0.968-4.816-1.8-7.368-2.416C137.707,277.869,140.147,278.701,142.515,279.669z M166.875,304.029
	c0.968,2.368,1.8,4.808,2.416,7.36C168.675,308.837,167.843,306.389,166.875,304.029z"/>
<g>
	<path style="fill:#353535;" d="M10.123,268.421c5.968,5.968,13.816,8.952,21.656,8.952s15.688-2.984,21.656-8.952l42.344-42.344
		l7.032,7.032c4.536,4.528,10.56,7.032,16.976,7.032s12.44-2.496,16.968-7.032l97.376-97.376c9.344-9.36,9.344-24.576,0-33.936
		l-7.04-7.032l42.344-42.344c11.944-11.936,11.944-31.376,0-43.312c-11.936-11.936-31.376-11.936-43.312,0l-42.344,42.344
		l-7.032-7.032c-9.072-9.064-24.88-9.064-33.944,0l-97.368,97.376c-9.344,9.36-9.344,24.576,0,33.936l0,0l7.032,7.032
		l-42.344,42.344C-1.821,237.045-1.821,256.485,10.123,268.421z M237.435,20.421c5.704-5.704,14.984-5.704,20.688,0
		s5.704,14.984,0,20.688l-42.344,42.344l-20.688-20.688L237.435,20.421z M56.747,153.109l97.376-97.376
		c3.016-3.032,8.288-3.032,11.312,0l57.368,57.376c3.12,3.12,3.12,8.192,0,11.312l-97.368,97.376c-3.016,3.032-8.288,3.032-11.312,0
		l-57.368-57.376C53.635,161.301,53.635,156.229,56.747,153.109z M21.435,236.421l42.344-42.344l20.688,20.688l-42.344,42.344
		c-5.704,5.704-14.984,5.704-20.688,0C15.731,251.405,15.731,242.125,21.435,236.421z"/>
	<path style="fill:#353535;" d="M421.435,121.109c-3.12-3.112-8.168-3.128-11.296-0.016l-128,127.336
		c-1.512,1.504-2.36,3.536-2.36,5.664c0,2.128,0.84,4.168,2.344,5.664l18.44,18.44L152.715,426.501
		c-5.768,5.768-8.936,13.44-8.936,21.656c0,16.872,13.728,30.608,30.608,30.608c8.192,0,15.896-3.192,21.688-9l147.768-148.288
		l18.28,18.28c1.56,1.56,3.608,2.344,5.656,2.344c2.04,0,4.08-0.776,5.64-2.328l85.536-85.064
		c12.856-12.8,19.944-29.832,19.968-47.968s-7.032-35.176-19.856-48L421.435,121.109z M184.747,458.469
		c-2.768,2.776-6.448,4.296-10.36,4.296c-8.056,0-14.608-6.552-14.608-14.656c0-3.896,1.512-7.552,4.264-10.312l147.832-148.288
		l20.656,20.656L184.747,458.469z M447.667,243.365l-79.872,79.44l-12.656-12.656l26.304-26.4l-11.336-11.296l-26.288,26.376
		l-20.656-20.656l50.272-50.432l-11.328-11.296l-50.256,50.416l-12.752-12.752l116.656-116.056l31.992,31.992
		c9.8,9.8,15.184,22.824,15.168,36.672S457.483,233.597,447.667,243.365z"/>
	<path style="fill:#353535;" d="M178.667,322.901l35.024-46.688l140.376-125.592c8.712-7.808,13.712-18.992,13.712-30.688
		c0-22.696-18.472-41.168-41.168-41.168c-11.696,0-22.88,5-30.68,13.72l-125.592,140.36l-46.72,35.04
		c-27.152-0.944-59.264,12.472-85.16,38.376c-37.608,37.6-49.008,88.32-28.08,117.88c0.056,0.088,0.072,0.192,0.128,0.28
		c0.064,0.088,0.136,0.144,0.192,0.232c1.528,2.112,3.2,4.128,5.072,6c0.016,0.016,0.032,0.04,0.048,0.056c0,0,0,0,0.008,0.008l0,0
		c0.008,0.008,0.016,0.016,0.024,0.024c1.112,1.112,2.328,2.176,3.6,3.216c0.512,0.416,1.032,0.816,1.552,1.208
		c0.384,0.288,0.728,0.592,1.128,0.88c0.112,0.08,0.256,0.112,0.376,0.192c9.848,6.936,22,10.36,35.272,10.36
		c26.568,0,57.456-13.456,82.504-38.496C166.187,382.181,179.619,350.061,178.667,322.901z M27.147,419.397l-0.008-0.008
		c-0.552-0.552-1-1.184-1.512-1.768c4.064-14.032,23.384-42.712,55.344-74.68c23.736-23.736,48.504-43.112,65.928-51.728
		c1.6,1.136,3.2,2.272,4.608,3.664c0.024,0.024,0.056,0.048,0.088,0.072c0.104,0.104,0.184,0.24,0.288,0.344
		c1.288,1.32,2.44,2.76,3.504,4.256c-8.592,17.424-28.008,42.24-51.784,66.016c-31.968,31.968-60.648,51.272-74.68,55.344
		C28.339,420.397,27.707,419.957,27.147,419.397z M307.851,103.157c4.768-5.336,11.608-8.392,18.76-8.392
		c13.88,0,25.168,11.288,25.168,25.168c0,7.152-3.056,13.984-8.384,18.76L208.083,259.757l-21.296-21.296L307.851,103.157z
		 M144.875,271.941l30.152-22.616l22.184,22.184l-22.616,30.152c-0.8-2.032-1.736-3.976-2.744-5.864
		c-0.136-0.248-0.264-0.496-0.4-0.744l0,0c-0.016-0.024-0.032-0.048-0.048-0.072c-0.088-0.152-0.2-0.288-0.28-0.44
		c-0.864-1.52-1.8-2.984-2.808-4.4c-0.36-0.504-0.712-1.008-1.088-1.504c-1.344-1.752-2.76-3.44-4.32-5.008l0,0c0,0,0,0-0.008-0.008
		l0,0c-0.008-0.008-0.016-0.016-0.024-0.016c-1.56-1.552-3.24-2.96-4.984-4.296c-0.488-0.368-0.984-0.72-1.48-1.072
		c-1.416-1.008-2.888-1.944-4.408-2.816c-0.176-0.104-0.328-0.232-0.504-0.328c-0.008-0.008-0.016,0-0.024-0.008
		c-0.24-0.128-0.48-0.256-0.72-0.384C148.867,273.685,146.915,272.741,144.875,271.941z M49.779,317.573
		c22.064-22.064,48.832-34.136,70.936-34.136c1.704,0,3.304,0.248,4.952,0.392l0,0c0.528,0.048,1,0.184,1.52,0.24
		c-17.152,10.816-37.496,27.544-57.52,47.56c-24.216,24.224-43.144,48.328-53.088,66.952
		C12.099,374.957,24.227,343.117,49.779,317.573z M128.971,396.773c-25.544,25.544-57.384,37.664-81,33.192
		c18.624-9.944,42.728-28.872,66.952-53.088c20.024-20.016,36.744-40.368,47.56-57.52c0.056,0.52,0.192,0.984,0.24,1.52
		c0.032,0.344,0.168,0.656,0.24,0.992C164.515,344.677,152.379,373.365,128.971,396.773z"/>
</g>
<g>
</g>
<g>
</g>
<g>
</g>
<g>
</g>
<g>
</g>
<g>
</g>
<g>
</g>
<g>
</g>
<g>
</g>
<g>
</g>
<g>
</g>
<g>
</g>
<g>
</g>
<g>
</g>
<g>
</g>
</svg>
